<svg xmlns="http://www.w3.org/2000/svg" xmlns:xlink="http://www.w3.org/1999/xlink" width="500" zoomAndPan="magnify" viewBox="0 0 375 374.999991" height="500" preserveAspectRatio="xMidYMid meet" version="1.0"><defs><g><g id="id1"/><g id="id2"/></g></defs><g fill="rgb(0%, 0%, 0%)" fill-opacity="1"><g transform="translate(37.59176, 235.859003)"><g><path d="M 1.15625 -39.609375 L 2.9375 0 L 37.015625 -0.109375 L 35.984375 -12.984375 L 12.765625 -12.640625 L 12.703125 -29.140625 L 35.984375 -29.546875 L 36.328125 -39.609375 Z M 1.15625 -39.609375 "/></g></g></g><g fill="rgb(0%, 0%, 0%)" fill-opacity="1"><g transform="translate(75.758776, 235.859003)"><g><path d="M 33.046875 0.109375 L 32.3125 -29.78125 L 1.265625 -30 L 1.15625 0.34375 Z M 11.4375 -21.953125 L 21.90625 -22.1875 L 21.671875 -9.59375 L 11.90625 -9.59375 Z M 11.4375 -21.953125 "/></g></g></g><g fill="rgb(0%, 0%, 0%)" fill-opacity="1"><g transform="translate(109.959649, 235.859003)"><g><path d="M 34.78125 -10.0625 L 11.5 -10.46875 L 11.546875 -24.203125 L 34.78125 -23.859375 L 35.46875 -33.96875 L 1.375 -34.71875 L 1.15625 0 L 35.125 0 Z M 34.78125 -10.0625 "/></g></g></g><g fill="rgb(0%, 0%, 0%)" fill-opacity="1"><g transform="translate(146.574697, 235.859003)"><g><path d="M 1.15625 -39.609375 L 1.4375 -30 L 10.6875 -30.296875 L 11.15625 -40.0625 Z M 1.15625 0 L 10.640625 0 L 10.34375 -26.5 L 1.71875 -25.984375 Z M 1.15625 0 "/></g></g></g><g fill="rgb(0%, 0%, 0%)" fill-opacity="1"><g transform="translate(158.875516, 235.859003)"><g><path d="M 25.171875 -0.0625 L 24.546875 -22.296875 L 13.6875 -22.53125 L 14.59375 0 L 1.78125 0.234375 L 1.15625 -30.359375 L 37.078125 -30.703125 L 37.765625 -0.28125 Z M 25.171875 -0.0625 "/></g></g></g><g fill="rgb(0%, 0%, 0%)" fill-opacity="1"><g transform="translate(197.789785, 235.859003)"><g><path d="M 30.40625 -33.859375 L 31.78125 0 L 2.703125 0.0625 L 1.15625 -18.796875 L 20.515625 -20.46875 L 20.171875 -25.34375 L 6.84375 -24.65625 L 6.4375 -32.765625 Z M 10.125 -13.6875 L 10 -7.1875 L 20.578125 -6.890625 L 20.6875 -13.390625 Z M 10.125 -13.6875 "/></g></g></g><g fill="rgb(0%, 0%, 0%)" fill-opacity="1"><g transform="translate(230.726086, 235.859003)"><g><path d="M 25.171875 -0.0625 L 24.546875 -22.296875 L 13.6875 -22.53125 L 14.59375 0 L 1.78125 0.234375 L 1.15625 -30.359375 L 37.078125 -30.703125 L 37.765625 -0.28125 Z M 25.171875 -0.0625 "/></g></g></g><g fill="rgb(0%, 0%, 0%)" fill-opacity="1"><g transform="translate(269.640344, 235.859003)"><g><path d="M 22.1875 -25 L 1.5 -25 L 1.15625 0 L 32.359375 -0.28125 L 32.421875 -42.25 L 22.078125 -42.25 Z M 11.4375 -16.5625 L 21.90625 -16.390625 L 21.5625 -7.703125 L 11.328125 -7.8125 Z M 11.4375 -16.5625 "/></g></g></g><g fill="rgb(0%, 0%, 0%)" fill-opacity="1"><g transform="translate(303.20893, 235.859003)"><g><path d="M 33.046875 0.109375 L 32.3125 -29.78125 L 1.265625 -30 L 1.15625 0.34375 Z M 11.4375 -21.953125 L 21.90625 -22.1875 L 21.671875 -9.59375 L 11.90625 -9.59375 Z M 11.4375 -21.953125 "/></g></g></g><g fill="rgb(0%, 0%, 0%)" fill-opacity="1"><g transform="translate(128.634723, 280.109)"><g><path d="M 1.15625 -38.859375 L 1.375 0 L 10.296875 -0.171875 L 10.296875 -16.671875 L 17.640625 -16.953125 L 16.90625 -24.484375 L 9.203125 -24.484375 L 9.203125 -30.875 L 20.578125 -30.875 L 20.296875 -38.6875 Z M 1.15625 -38.859375 "/></g></g></g><g fill="rgb(0%, 0%, 0%)" fill-opacity="1"><g transform="translate(150.362337, 280.109)"><g><path d="M 30.40625 -33.859375 L 31.78125 0 L 2.703125 0.0625 L 1.15625 -18.796875 L 20.515625 -20.46875 L 20.171875 -25.34375 L 6.84375 -24.65625 L 6.4375 -32.765625 Z M 10.125 -13.6875 L 10 -7.1875 L 20.578125 -6.890625 L 20.6875 -13.390625 Z M 10.125 -13.6875 "/></g></g></g><g fill="rgb(0%, 0%, 0%)" fill-opacity="1"><g transform="translate(183.298637, 280.109)"><g><path d="M 34.78125 -10.0625 L 11.5 -10.46875 L 11.546875 -24.203125 L 34.78125 -23.859375 L 35.46875 -33.96875 L 1.375 -34.71875 L 1.15625 0 L 35.125 0 Z M 34.78125 -10.0625 "/></g></g></g><g fill="rgb(0%, 0%, 0%)" fill-opacity="1"><g transform="translate(219.913686, 280.109)"><g><path d="M 1.15625 -39.609375 L 1.4375 -30 L 10.6875 -30.296875 L 11.15625 -40.0625 Z M 1.15625 0 L 10.640625 0 L 10.34375 -26.5 L 1.71875 -25.984375 Z M 1.15625 0 "/></g></g></g><g fill="rgb(0%, 0%, 0%)" fill-opacity="1"><g transform="translate(232.214504, 280.109)"><g><path d="M 2.015625 -39.484375 L 1.15625 -0.171875 L 12.421875 0 L 12.984375 -39.84375 Z M 2.015625 -39.484375 "/></g></g></g><g fill="rgb(0%, 0%, 0%)" fill-opacity="1"><g transform="translate(119.74233, 328.995125)"><g><path d="M 8.546875 -8.90625 L 5.21875 -8.90625 L 5.21875 0 L 3.453125 0 L 3.453125 -8.90625 L 0.140625 -8.90625 L 0.140625 -10.5 L 8.546875 -10.5 Z M 8.546875 -8.90625 "/></g></g></g><g fill="rgb(0%, 0%, 0%)" fill-opacity="1"><g transform="translate(128.427319, 328.995125)"><g><path d="M 8.515625 -7.984375 L 8.515625 0 L 6.796875 0 L 6.796875 -1.5625 C 6.273438 -0.5 5.320312 0.0390625 3.9375 0.0625 C 3.03125 0.0625 2.316406 -0.210938 1.796875 -0.765625 C 1.273438 -1.316406 1.015625 -2.066406 1.015625 -3.015625 L 1.015625 -7.984375 L 2.75 -7.984375 L 2.75 -3.5 C 2.75 -2.894531 2.910156 -2.421875 3.234375 -2.078125 C 3.566406 -1.734375 4.023438 -1.5625 4.609375 -1.5625 C 5.273438 -1.570312 5.804688 -1.804688 6.203125 -2.265625 C 6.597656 -2.734375 6.796875 -3.328125 6.796875 -4.046875 L 6.796875 -7.984375 Z M 8.515625 -7.984375 "/></g></g></g><g fill="rgb(0%, 0%, 0%)" fill-opacity="1"><g transform="translate(138.222305, 328.995125)"><g/></g></g><g fill="rgb(0%, 0%, 0%)" fill-opacity="1"><g transform="translate(142.092296, 328.995125)"><g><path d="M 10.5625 0 L 8.78125 0 L 6.75 -5.90625 L 4.71875 0 L 2.953125 0 L 0.015625 -7.984375 L 1.78125 -7.984375 L 3.859375 -1.703125 L 5.859375 -7.984375 L 7.65625 -7.984375 L 9.671875 -1.703125 L 11.71875 -7.984375 L 13.46875 -7.984375 Z M 10.5625 0 "/></g></g></g><g fill="rgb(0%, 0%, 0%)" fill-opacity="1"><g transform="translate(155.487284, 328.995125)"><g><path d="M 4.5625 -8.046875 C 5.925781 -8.046875 6.914062 -7.628906 7.53125 -6.796875 C 8.144531 -5.972656 8.398438 -4.816406 8.296875 -3.328125 L 2.265625 -3.328125 C 2.398438 -2.710938 2.6875 -2.222656 3.125 -1.859375 C 3.570312 -1.503906 4.109375 -1.328125 4.734375 -1.328125 C 5.640625 -1.328125 6.390625 -1.640625 6.984375 -2.265625 L 7.90625 -1.296875 C 7.082031 -0.390625 5.984375 0.0625 4.609375 0.0625 C 3.378906 0.0625 2.390625 -0.304688 1.640625 -1.046875 C 0.898438 -1.796875 0.53125 -2.769531 0.53125 -3.96875 C 0.53125 -5.175781 0.90625 -6.15625 1.65625 -6.90625 C 2.40625 -7.65625 3.375 -8.035156 4.5625 -8.046875 Z M 2.234375 -4.59375 L 6.796875 -4.59375 C 6.765625 -5.226562 6.546875 -5.726562 6.140625 -6.09375 C 5.742188 -6.46875 5.222656 -6.65625 4.578125 -6.65625 C 3.941406 -6.65625 3.414062 -6.46875 3 -6.09375 C 2.59375 -5.726562 2.335938 -5.226562 2.234375 -4.59375 Z M 2.234375 -4.59375 "/></g></g></g><g fill="rgb(0%, 0%, 0%)" fill-opacity="1"><g transform="translate(164.307279, 328.995125)"><g><path d="M 5.859375 -8.046875 C 6.992188 -8.046875 7.910156 -7.664062 8.609375 -6.90625 C 9.316406 -6.15625 9.671875 -5.171875 9.671875 -3.953125 C 9.671875 -2.753906 9.328125 -1.785156 8.640625 -1.046875 C 7.953125 -0.304688 7.035156 0.0625 5.890625 0.0625 C 4.609375 0.0625 3.671875 -0.414062 3.078125 -1.375 L 3.078125 0 L 1.34375 0 L 1.34375 -11.125 L 3.078125 -11.125 L 3.078125 -6.59375 C 3.671875 -7.5625 4.597656 -8.046875 5.859375 -8.046875 Z M 3.75 -2.125 C 4.207031 -1.644531 4.789062 -1.40625 5.5 -1.40625 C 6.207031 -1.40625 6.789062 -1.644531 7.25 -2.125 C 7.707031 -2.613281 7.9375 -3.242188 7.9375 -4.015625 C 7.9375 -4.765625 7.707031 -5.378906 7.25 -5.859375 C 6.789062 -6.347656 6.207031 -6.59375 5.5 -6.59375 C 4.789062 -6.59375 4.207031 -6.347656 3.75 -5.859375 C 3.300781 -5.378906 3.078125 -4.765625 3.078125 -4.015625 C 3.078125 -3.242188 3.300781 -2.613281 3.75 -2.125 Z M 3.75 -2.125 "/></g></g></g><g fill="rgb(0%, 0%, 0%)" fill-opacity="1"><g transform="translate(174.507272, 328.995125)"><g/></g></g><g fill="rgb(0%, 0%, 0%)" fill-opacity="1"><g transform="translate(178.377263, 328.995125)"><g><path d="M 8.875 -11.125 L 8.875 0 L 7.15625 0 L 7.15625 -1.359375 C 6.5625 -0.398438 5.625 0.078125 4.34375 0.078125 C 3.207031 0.078125 2.285156 -0.296875 1.578125 -1.046875 C 0.878906 -1.804688 0.53125 -2.796875 0.53125 -4.015625 C 0.53125 -5.210938 0.878906 -6.1875 1.578125 -6.9375 C 2.273438 -7.6875 3.1875 -8.0625 4.3125 -8.0625 C 5.59375 -8.0625 6.539062 -7.570312 7.15625 -6.59375 L 7.15625 -11.125 Z M 2.9375 -2.078125 C 3.394531 -1.597656 3.984375 -1.359375 4.703125 -1.359375 C 5.429688 -1.359375 6.019531 -1.597656 6.46875 -2.078125 C 6.925781 -2.566406 7.15625 -3.191406 7.15625 -3.953125 C 7.15625 -4.722656 6.925781 -5.351562 6.46875 -5.84375 C 6.019531 -6.332031 5.429688 -6.578125 4.703125 -6.578125 C 3.984375 -6.578125 3.394531 -6.332031 2.9375 -5.84375 C 2.488281 -5.351562 2.257812 -4.722656 2.25 -3.953125 C 2.257812 -3.191406 2.488281 -2.566406 2.9375 -2.078125 Z M 2.9375 -2.078125 "/></g></g></g><g fill="rgb(0%, 0%, 0%)" fill-opacity="1"><g transform="translate(188.60725, 328.995125)"><g><path d="M 4.5625 -8.046875 C 5.925781 -8.046875 6.914062 -7.628906 7.53125 -6.796875 C 8.144531 -5.972656 8.398438 -4.816406 8.296875 -3.328125 L 2.265625 -3.328125 C 2.398438 -2.710938 2.6875 -2.222656 3.125 -1.859375 C 3.570312 -1.503906 4.109375 -1.328125 4.734375 -1.328125 C 5.640625 -1.328125 6.390625 -1.640625 6.984375 -2.265625 L 7.90625 -1.296875 C 7.082031 -0.390625 5.984375 0.0625 4.609375 0.0625 C 3.378906 0.0625 2.390625 -0.304688 1.640625 -1.046875 C 0.898438 -1.796875 0.53125 -2.769531 0.53125 -3.96875 C 0.53125 -5.175781 0.90625 -6.15625 1.65625 -6.90625 C 2.40625 -7.65625 3.375 -8.035156 4.5625 -8.046875 Z M 2.234375 -4.59375 L 6.796875 -4.59375 C 6.765625 -5.226562 6.546875 -5.726562 6.140625 -6.09375 C 5.742188 -6.46875 5.222656 -6.65625 4.578125 -6.65625 C 3.941406 -6.65625 3.414062 -6.46875 3 -6.09375 C 2.59375 -5.726562 2.335938 -5.226562 2.234375 -4.59375 Z M 2.234375 -4.59375 "/></g></g></g><g fill="rgb(0%, 0%, 0%)" fill-opacity="1"><g transform="translate(197.427246, 328.995125)"><g/></g></g><g fill="rgb(0%, 0%, 0%)" fill-opacity="1"><g transform="translate(201.297237, 328.995125)"><g><path d="M 3 -7.984375 L 3 -6.390625 C 3.550781 -7.492188 4.472656 -8.046875 5.765625 -8.046875 L 5.765625 -6.390625 C 4.972656 -6.429688 4.332031 -6.242188 3.84375 -5.828125 C 3.351562 -5.421875 3.070312 -4.867188 3 -4.171875 L 3 0 L 1.28125 0 L 1.28125 -7.984375 Z M 3 -7.984375 "/></g></g></g><g fill="rgb(0%, 0%, 0%)" fill-opacity="1"><g transform="translate(207.207228, 328.995125)"><g><path d="M 4.5625 -8.046875 C 5.925781 -8.046875 6.914062 -7.628906 7.53125 -6.796875 C 8.144531 -5.972656 8.398438 -4.816406 8.296875 -3.328125 L 2.265625 -3.328125 C 2.398438 -2.710938 2.6875 -2.222656 3.125 -1.859375 C 3.570312 -1.503906 4.109375 -1.328125 4.734375 -1.328125 C 5.640625 -1.328125 6.390625 -1.640625 6.984375 -2.265625 L 7.90625 -1.296875 C 7.082031 -0.390625 5.984375 0.0625 4.609375 0.0625 C 3.378906 0.0625 2.390625 -0.304688 1.640625 -1.046875 C 0.898438 -1.796875 0.53125 -2.769531 0.53125 -3.96875 C 0.53125 -5.175781 0.90625 -6.15625 1.65625 -6.90625 C 2.40625 -7.65625 3.375 -8.035156 4.5625 -8.046875 Z M 2.234375 -4.59375 L 6.796875 -4.59375 C 6.765625 -5.226562 6.546875 -5.726562 6.140625 -6.09375 C 5.742188 -6.46875 5.222656 -6.65625 4.578125 -6.65625 C 3.941406 -6.65625 3.414062 -6.46875 3 -6.09375 C 2.59375 -5.726562 2.335938 -5.226562 2.234375 -4.59375 Z M 2.234375 -4.59375 "/></g></g></g><g fill="rgb(0%, 0%, 0%)" fill-opacity="1"><g transform="translate(216.027224, 328.995125)"><g><path d="M 4.546875 -8.046875 C 5.984375 -8.046875 7.082031 -7.609375 7.84375 -6.734375 L 6.90625 -5.625 C 6.300781 -6.238281 5.539062 -6.539062 4.625 -6.53125 C 3.925781 -6.53125 3.351562 -6.289062 2.90625 -5.8125 C 2.46875 -5.332031 2.25 -4.71875 2.25 -3.96875 C 2.25 -3.21875 2.46875 -2.601562 2.90625 -2.125 C 3.351562 -1.65625 3.925781 -1.421875 4.625 -1.421875 C 5.644531 -1.421875 6.425781 -1.742188 6.96875 -2.390625 L 7.9375 -1.421875 C 7.1875 -0.429688 6.054688 0.0625 4.546875 0.0625 C 3.359375 0.0625 2.390625 -0.304688 1.640625 -1.046875 C 0.898438 -1.796875 0.53125 -2.769531 0.53125 -3.96875 C 0.53125 -5.1875 0.898438 -6.171875 1.640625 -6.921875 C 2.390625 -7.671875 3.359375 -8.046875 4.546875 -8.046875 Z M 4.546875 -8.046875 "/></g></g></g><g fill="rgb(0%, 0%, 0%)" fill-opacity="1"><g transform="translate(224.487211, 328.995125)"><g><path d="M 4.5625 -8.046875 C 5.925781 -8.046875 6.914062 -7.628906 7.53125 -6.796875 C 8.144531 -5.972656 8.398438 -4.816406 8.296875 -3.328125 L 2.265625 -3.328125 C 2.398438 -2.710938 2.6875 -2.222656 3.125 -1.859375 C 3.570312 -1.503906 4.109375 -1.328125 4.734375 -1.328125 C 5.640625 -1.328125 6.390625 -1.640625 6.984375 -2.265625 L 7.90625 -1.296875 C 7.082031 -0.390625 5.984375 0.0625 4.609375 0.0625 C 3.378906 0.0625 2.390625 -0.304688 1.640625 -1.046875 C 0.898438 -1.796875 0.53125 -2.769531 0.53125 -3.96875 C 0.53125 -5.175781 0.90625 -6.15625 1.65625 -6.90625 C 2.40625 -7.65625 3.375 -8.035156 4.5625 -8.046875 Z M 2.234375 -4.59375 L 6.796875 -4.59375 C 6.765625 -5.226562 6.546875 -5.726562 6.140625 -6.09375 C 5.742188 -6.46875 5.222656 -6.65625 4.578125 -6.65625 C 3.941406 -6.65625 3.414062 -6.46875 3 -6.09375 C 2.59375 -5.726562 2.335938 -5.226562 2.234375 -4.59375 Z M 2.234375 -4.59375 "/></g></g></g><g fill="rgb(0%, 0%, 0%)" fill-opacity="1"><g transform="translate(233.307206, 328.995125)"><g><path d="M 5.359375 -1.828125 L 5.796875 -0.515625 C 5.128906 -0.117188 4.46875 0.078125 3.8125 0.078125 C 3.164062 0.078125 2.632812 -0.113281 2.21875 -0.5 C 1.800781 -0.894531 1.59375 -1.476562 1.59375 -2.25 L 1.59375 -6.390625 L 0.46875 -6.390625 L 0.46875 -7.6875 L 1.59375 -7.6875 L 1.59375 -9.875 L 3.296875 -9.875 L 3.296875 -7.6875 L 5.65625 -7.6875 L 5.65625 -6.390625 L 3.296875 -6.390625 L 3.296875 -2.5625 C 3.296875 -2.164062 3.363281 -1.882812 3.5 -1.71875 C 3.644531 -1.5625 3.863281 -1.484375 4.15625 -1.484375 C 4.476562 -1.484375 4.878906 -1.597656 5.359375 -1.828125 Z M 5.359375 -1.828125 "/></g></g><g transform="translate(239.412206, 328.995125)"><g><path d="M 6.0625 0 L 6.0625 -0.96875 C 5.488281 -0.269531 4.609375 0.078125 3.421875 0.078125 C 2.566406 0.078125 1.882812 -0.148438 1.375 -0.609375 C 0.863281 -1.078125 0.609375 -1.675781 0.609375 -2.40625 C 0.609375 -3.132812 0.875 -3.710938 1.40625 -4.140625 C 1.9375 -4.566406 2.675781 -4.785156 3.625 -4.796875 L 6.046875 -4.796875 L 6.046875 -5.046875 C 6.046875 -5.554688 5.878906 -5.945312 5.546875 -6.21875 C 5.222656 -6.5 4.753906 -6.640625 4.140625 -6.640625 C 3.367188 -6.640625 2.582031 -6.367188 1.78125 -5.828125 L 1.078125 -7.03125 C 1.691406 -7.394531 2.238281 -7.65625 2.71875 -7.8125 C 3.207031 -7.96875 3.804688 -8.046875 4.515625 -8.046875 C 5.535156 -8.046875 6.320312 -7.796875 6.875 -7.296875 C 7.4375 -6.804688 7.722656 -6.117188 7.734375 -5.234375 L 7.75 0 Z M 3.78125 -1.296875 C 4.382812 -1.296875 4.898438 -1.4375 5.328125 -1.71875 C 5.753906 -2 5.992188 -2.363281 6.046875 -2.8125 L 6.046875 -3.546875 L 3.890625 -3.546875 C 3.316406 -3.546875 2.894531 -3.460938 2.625 -3.296875 C 2.363281 -3.128906 2.234375 -2.851562 2.234375 -2.46875 C 2.234375 -2.113281 2.367188 -1.828125 2.640625 -1.609375 C 2.921875 -1.398438 3.300781 -1.296875 3.78125 -1.296875 Z M 3.78125 -1.296875 "/></g></g></g><g fill="rgb(0%, 0%, 0%)" fill-opacity="1"><g transform="translate(248.202194, 328.995125)"><g><path d="M 3.65625 -8.0625 C 4.757812 -8.0625 5.691406 -7.789062 6.453125 -7.25 L 5.8125 -5.96875 C 5.0625 -6.4375 4.300781 -6.671875 3.53125 -6.671875 C 2.75 -6.671875 2.359375 -6.40625 2.359375 -5.875 C 2.359375 -5.613281 2.5 -5.398438 2.78125 -5.234375 C 3.070312 -5.066406 3.425781 -4.925781 3.84375 -4.8125 C 4.257812 -4.695312 4.675781 -4.5625 5.09375 -4.40625 C 5.507812 -4.25 5.859375 -3.992188 6.140625 -3.640625 C 6.429688 -3.296875 6.578125 -2.851562 6.578125 -2.3125 C 6.578125 -1.539062 6.285156 -0.953125 5.703125 -0.546875 C 5.117188 -0.140625 4.394531 0.0625 3.53125 0.0625 C 2.925781 0.0625 2.335938 -0.0351562 1.765625 -0.234375 C 1.191406 -0.429688 0.707031 -0.703125 0.3125 -1.046875 L 0.9375 -2.28125 C 1.269531 -1.976562 1.679688 -1.738281 2.171875 -1.5625 C 2.671875 -1.382812 3.144531 -1.296875 3.59375 -1.296875 C 3.988281 -1.296875 4.304688 -1.363281 4.546875 -1.5 C 4.785156 -1.632812 4.90625 -1.847656 4.90625 -2.140625 C 4.90625 -2.441406 4.757812 -2.679688 4.46875 -2.859375 C 4.175781 -3.046875 3.828125 -3.191406 3.421875 -3.296875 C 3.015625 -3.410156 2.601562 -3.539062 2.1875 -3.6875 C 1.78125 -3.84375 1.429688 -4.09375 1.140625 -4.4375 C 0.859375 -4.78125 0.71875 -5.21875 0.71875 -5.75 C 0.71875 -6.507812 1 -7.082031 1.5625 -7.46875 C 2.132812 -7.863281 2.832031 -8.0625 3.65625 -8.0625 Z M 3.65625 -8.0625 "/></g></g></g><path fill="rgb(86.268616%, 26.669312%, 21.569824%)" d="M 234.871094 157.941406 C 226.8125 161.582031 213.128906 162.527344 194.976562 157.980469 C 197.03125 157.199219 199.121094 156.328125 201.25 155.386719 C 218.539062 159.210938 231.9375 158.242188 239.578125 154.789062 C 240.1875 154.515625 240.785156 154.246094 241.371094 153.984375 C 240.429688 155.554688 237.734375 156.648438 234.871094 157.941406 Z M 142.300781 158.328125 C 139.410156 157.089844 136.695312 156.054688 135.722656 154.507812 C 136.308594 154.757812 136.914062 155.011719 137.53125 155.277344 C 144.988281 158.460938 157.777344 159.207031 174.175781 155.480469 C 176.296875 156.402344 178.378906 157.246094 180.425781 158.015625 C 163.242188 162.417969 150.164062 161.691406 142.300781 158.328125 Z M 194.277344 153.632812 C 192.019531 154.476562 189.820312 155.242188 187.671875 155.925781 C 185.535156 155.257812 183.34375 154.511719 181.097656 153.695312 C 183.246094 153.082031 185.441406 152.382812 187.679688 151.613281 C 189.929688 152.363281 192.125 153.03125 194.277344 153.632812 Z M 247.996094 145.902344 C 238.28125 148.882812 228.945312 148.085938 220.292969 145.050781 C 240.804688 131.828125 258.578125 113.167969 258.503906 96.980469 C 258.457031 96.972656 256.269531 96.460938 253.207031 94.980469 C 258.378906 110.785156 237.148438 131.894531 216.386719 143.511719 C 214.789062 142.8125 213.214844 142.042969 211.667969 141.207031 C 232.683594 129.933594 253.816406 108.5 248.695312 92.371094 C 245.839844 90.425781 242.796875 87.734375 240.199219 84.054688 C 240.132812 83.984375 240.066406 83.914062 240.011719 83.851562 L 239.914062 83.753906 L 239.96875 83.722656 C 238.042969 80.917969 236.371094 77.554688 235.234375 73.53125 C 218.019531 72.449219 207.578125 95.597656 207.578125 95.597656 C 207.578125 95.597656 200.203125 109.054688 187.960938 122.359375 C 175.761719 109.488281 168.328125 96.550781 168.328125 96.550781 C 168.328125 96.550781 157.410156 73.628906 140.222656 75.058594 C 139.171875 79.109375 137.570312 82.503906 135.699219 85.347656 L 135.753906 85.378906 L 135.65625 85.480469 C 135.605469 85.542969 135.542969 85.613281 135.476562 85.683594 C 132.953125 89.414062 129.964844 92.167969 127.152344 94.171875 C 122.4375 110.136719 143.226562 130.714844 164.121094 141.703125 C 162.566406 142.546875 160.976562 143.328125 159.363281 144.03125 C 138.730469 132.710938 117.929688 112.492188 122.695312 96.875 C 119.664062 98.417969 117.488281 98.972656 117.4375 98.984375 C 117.691406 114.871094 135.1875 132.789062 155.484375 145.554688 C 147.214844 148.4375 138.28125 149.222656 128.9375 146.5625 C 125.230469 145.507812 119.566406 144.441406 117.664062 149.296875 C 116.066406 153.359375 121.089844 155.152344 126.570312 157.496094 C 140.347656 163.386719 160.367188 168.914062 187.699219 160.496094 C 216.144531 169.15625 236.625 163.09375 250.582031 156.789062 C 256.011719 154.332031 261 152.433594 259.320312 148.402344 C 257.320312 143.59375 251.679688 144.773438 247.996094 145.902344 " fill-opacity="1" fill-rule="nonzero"/><path fill="rgb(86.268616%, 26.669312%, 21.569824%)" d="M 133.726562 85.246094 C 133.789062 85.175781 133.855469 85.101562 133.90625 85.035156 L 134.003906 84.9375 L 133.949219 84.910156 C 135.828125 82.054688 137.433594 78.640625 138.488281 74.566406 C 138.488281 74.566406 131.574219 75.308594 126.464844 79.324219 C 117.828125 71.140625 113.210938 60.339844 113.210938 60.339844 L 110.105469 62.210938 C 112.242188 72.554688 116.125 79.988281 120.339844 85.300781 C 119.683594 86.015625 114.414062 91.984375 115.679688 98.542969 C 115.679688 98.542969 126.578125 95.828125 133.726562 85.246094 " fill-opacity="1" fill-rule="nonzero"/><path fill="rgb(86.268616%, 26.669312%, 21.569824%)" d="M 265.203125 59.757812 L 262.058594 57.949219 C 262.058594 57.949219 257.664062 68.839844 249.199219 77.199219 C 244.007812 73.292969 237.082031 72.695312 237.082031 72.695312 C 238.21875 76.738281 239.890625 80.121094 241.828125 82.9375 L 241.773438 82.96875 L 241.875 83.066406 C 241.929688 83.128906 241.996094 83.199219 242.058594 83.265625 C 249.425781 93.707031 260.371094 96.199219 260.371094 96.199219 C 261.503906 89.609375 256.113281 83.753906 255.441406 83.054688 C 259.550781 77.65625 263.277344 70.144531 265.203125 59.757812 " fill-opacity="1" fill-rule="nonzero"/></svg>